<?xml version="1.0" encoding="utf-8"?>
<svg id="master-artboard" viewBox="0 0 1400 980" version="1.1" xmlns="http://www.w3.org/2000/svg" x="0px" y="0px" style="enable-background:new 0 0 1400 980;" width="1400px" height="980px"><g transform="matrix(0.5235042735042735, 0, 0, 0.5235042735042735, 105.29914529914527, 0)"><g>
	<g>
		<path d="M 142 347.100006 H 2130 V 1708.100006 H 142 V 347.100006 Z" class="st0" style="fill: rgb(247, 169, 82);"/>
		
			<path d="M 495.5 73.599998 H 1776.5 V 1981.599998 H 495.5 V 73.599998 Z" transform="matrix(-1.836970e-16 1 -1 -1.836970e-16 2163.6213 -108.3787)" class="st1" style="fill: rgb(184, 124, 62);"/>
		
			<path d="M 519.5 93 H 1760.5 V 1961 H 519.5 V 93 Z" transform="matrix(-1.836970e-16 1 -1 -1.836970e-16 2166.9543 -113.0455)" class="st2" style="fill: rgb(97, 97, 97);"/>
		<path d="M 202 407.1000061035156 L 2070 407.1000061035156 L 2070 1648.0999755859375 Z" class="st3" style="fill: rgb(79, 79, 79);"/>
		
			<path d="M 232.5 1146.5 H 720.200012 V 1491.299988 H 232.5 V 1146.5 Z" transform="matrix(-1.836970e-16 1 -1 -1.836970e-16 1795.2373 842.6631)" class="st4" style="fill: rgb(255, 255, 255);"/>
		
			<path d="M 672.299988 1146.5 H 1160 V 1491.299988 H 672.299988 V 1146.5 Z" transform="matrix(-1.836970e-16 1 -1 -1.836970e-16 2235.0459 402.8546)" class="st4" style="fill: rgb(255, 255, 255);"/>
		<path d="M 926.099976 1125.099976 A 10 10 0 0 1 916.099976 1135.099976 A 10 10 0 0 1 906.099976 1125.099976 A 10 10 0 0 1 916.099976 1115.099976 A 10 10 0 0 1 926.099976 1125.099976 Z" class="st5" style="fill: rgb(192, 204, 27);"/>
		<path d="M 804.099976 1435.400024 H 1058.399979 V 1450.400024 H 804.099976 V 1435.400024 Z" class="st6" style="fill: rgb(79, 79, 78);"/>
		<path d="M 773.700012 1475.400024 H 1058.5 V 1490.400024 H 773.700012 V 1475.400024 Z" class="st6" style="fill: rgb(79, 79, 78);"/>
		<path d="M 773.700012 1515.400024 H 999.100006 V 1530.400024 H 773.700012 V 1515.400024 Z" class="st6" style="fill: rgb(79, 79, 78);"/>
		<g>
			
				<path d="M 232.5 563.900024 H 720.200012 V 908.700012 H 232.5 V 563.900024 Z" transform="matrix(-1.836970e-16 1 -1 -1.836970e-16 1212.5796 260.0053)" class="st4" style="fill: rgb(255, 255, 255);"/>
			<g>
				<path d="M 648.7000122070312 492.5 L 330.3999938964844 492.5 L 648.7000122070312 703.9000244140625 Z" class="st7" style="fill: rgb(239, 239, 239);"/>
				<path d="M 535 614.4000244140625 L 514 614.4000244140625 L 535 628.2999877929688 Z" class="st8" style="fill: rgb(239, 196, 17);"/>
				<path d="M 599.0999755859375 655.7999877929688 L 576.2999877929688 655.7999877929688 L 599.0999755859375 670.9000244140625 Z" class="st9" style="fill: rgb(184, 188, 27);"/>
			</g>
			<path d="M 486.299988 542.5 A 10 10 0 0 1 476.299988 552.5 A 10 10 0 0 1 466.299988 542.5 A 10 10 0 0 1 476.299988 532.5 A 10 10 0 0 1 486.299988 542.5 Z" class="st10" style="fill: rgb(232, 55, 45);"/>
			<path d="M 374.600006 641.299988 H 406.700005 V 709.499985 H 374.600006 V 641.299988 Z" class="st11" style="fill: rgb(255, 218, 16);"/>
			
				<path d="M 502.899994 614.400024 H 534.999992 V 709.500023 H 502.899994 V 614.400024 Z" transform="matrix(-1 -4.494151e-11 4.494151e-11 -1 1037.83 1323.8741)" class="st11" style="fill: rgb(255, 218, 16);"/>
			
				<path d="M 438.700012 602.099976 H 470.800011 V 709.499977 H 438.700012 V 602.099976 Z" transform="matrix(-1 -4.488466e-11 4.488466e-11 -1 909.5248 1311.6052)" class="st5" style="fill: rgb(192, 204, 27);"/>
			
				<path d="M 567 655.799988 H 599.099998 V 709.499989 H 567 V 655.799988 Z" transform="matrix(-1 -2.245638e-11 2.245638e-11 -1 1166.1351 1365.2913)" class="st5" style="fill: rgb(192, 204, 27);"/>
			<g>
				<path class="st10" d="M613.6,714.5H338.9c-2.8,0-5-2.3-5-5v-132c0-2.8,2.3-5,5-5c2.8,0,5,2.3,5,5v127h269.7c2.8,0,5,2.3,5,5&#10;&#9;&#9;&#9;&#9;&#9;C618.7,712.3,616.4,714.5,613.6,714.5z" style="fill: rgb(232, 55, 45);"/>
			</g>
			<path d="M 333.899994 744.5 H 363.899994 V 774.5 H 333.899994 V 744.5 Z" class="st11" style="fill: rgb(255, 218, 16);"/>
			<path d="M 333.899994 804.599976 H 363.899994 V 834.599976 H 333.899994 V 804.599976 Z" class="st5" style="fill: rgb(192, 204, 27);"/>
			<path d="M 378.899994 752 H 454.699997 V 767 H 378.899994 V 752 Z" class="st6" style="fill: rgb(79, 79, 78);"/>
			<path d="M 378.899994 812.099976 H 454.699997 V 827.099976 H 378.899994 V 812.099976 Z" class="st6" style="fill: rgb(79, 79, 78);"/>
		</g>
		<g>
			
				<path d="M 672.299988 563.900024 H 1160 V 908.700012 H 672.299988 V 563.900024 Z" transform="matrix(-1.836970e-16 1 -1 -1.836970e-16 1652.3882 -179.8033)" class="st4" style="fill: rgb(255, 255, 255);"/>
			<path d="M 1088.5 980.0999755859375 L 1088.5 492.5 L 743.7000122070312 492.5 L 743.7000122070312 767 L 1064.5 980.0999755859375 Z" class="st7" style="fill: rgb(239, 239, 239);"/>
			<path d="M 789.700012 809.599976 H 1058.5 V 824.599976 H 789.700012 V 809.599976 Z" class="st6" style="fill: rgb(79, 79, 78);"/>
			<path d="M 773.700012 840.5 H 1058.5 V 855.5 H 773.700012 V 840.5 Z" class="st6" style="fill: rgb(79, 79, 78);"/>
			<path d="M 773.700012 871.400024 H 1058.5 V 886.400024 H 773.700012 V 871.400024 Z" class="st6" style="fill: rgb(79, 79, 78);"/>
			<path d="M 773.700012 902.400024 H 983.900009 V 917.400024 H 773.700012 V 902.400024 Z" class="st6" style="fill: rgb(79, 79, 78);"/>
			<path d="M 1058.5 824.5999755859375 L 1058.5 809.5999755859375 L 807.7999877929688 809.5999755859375 L 830.4000244140625 824.5999755859375 Z" class="st12" style="fill: rgb(58, 58, 58);"/>
			<path d="M 1058.5 855.5 L 1058.5 840.5 L 854.2999877929688 840.5 L 876.9000244140625 855.5 Z" class="st12" style="fill: rgb(58, 58, 58);"/>
			<path d="M 1058.5 886.5 L 1058.5 871.4000244140625 L 900.9000244140625 871.4000244140625 L 923.5 886.5 Z" class="st12" style="fill: rgb(58, 58, 58);"/>
			<path d="M 983.9000244140625 917.4000244140625 L 983.9000244140625 902.4000244140625 L 947.5 902.4000244140625 L 970.0999755859375 917.4000244140625 Z" class="st12" style="fill: rgb(58, 58, 58);"/>
			<path d="M 926.099976 542.5 A 10 10 0 0 1 916.099976 552.5 A 10 10 0 0 1 906.099976 542.5 A 10 10 0 0 1 916.099976 532.5 A 10 10 0 0 1 926.099976 542.5 Z" class="st8" style="fill: rgb(239, 196, 17);"/>
			
				<path d="M 906.099976 642.700012 H 938.199974 V 786.100006 H 906.099976 V 642.700012 Z" transform="matrix(-1 -4.488466e-11 4.488466e-11 -1 1844.3746 1428.8429)" class="st13" style="fill: rgb(3, 149, 214);"/>
			
				<path d="M 773.700012 607 H 805.800011 V 786.100006 H 773.700012 V 607 Z" transform="matrix(-1 -5.960045e-11 5.960045e-11 -1 1579.4591 1393.1342)" class="st10" style="fill: rgb(232, 55, 45);"/>
			<path d="M 862 590.700012 H 894.099998 V 786.100006 H 862 V 590.700012 Z" class="st9" style="fill: rgb(184, 188, 27);"/>
			
				<path d="M 817.799988 661.900024 H 849.899986 V 786.100021 H 817.799988 V 661.900024 Z" transform="matrix(-1 -2.977186e-11 2.977186e-11 -1 1667.7643 1448.0707)" class="st8" style="fill: rgb(239, 196, 17);"/>
			<path d="M 963.900024 585.799988 H 983.900024 V 605.799988 H 963.900024 V 585.799988 Z" class="st10" style="fill: rgb(232, 55, 45);"/>
			<path d="M 993.900024 590.799988 H 1058.500023 V 600.799988 H 993.900024 V 590.799988 Z" class="st12" style="fill: rgb(58, 58, 58);"/>
			<path d="M 963.900024 625.799988 H 983.900024 V 645.799988 H 963.900024 V 625.799988 Z" class="st8" style="fill: rgb(239, 196, 17);"/>
			<path d="M 993.900024 630.799988 H 1058.500023 V 640.799988 H 993.900024 V 630.799988 Z" class="st12" style="fill: rgb(58, 58, 58);"/>
			<path d="M 963.900024 665.799988 H 983.900024 V 685.799988 H 963.900024 V 665.799988 Z" class="st9" style="fill: rgb(184, 188, 27);"/>
			<path d="M 993.900024 670.799988 H 1058.500023 V 680.799988 H 993.900024 V 670.799988 Z" class="st12" style="fill: rgb(58, 58, 58);"/>
			<path d="M 963.900024 705.799988 H 983.900024 V 725.799988 H 963.900024 V 705.799988 Z" class="st13" style="fill: rgb(3, 149, 214);"/>
			<path d="M 993.900024 710.799988 H 1058.500023 V 720.799988 H 993.900024 V 710.799988 Z" class="st12" style="fill: rgb(58, 58, 58);"/>
		</g>
		<g>
			
				<path d="M 1112.099976 563.900024 H 1599.799988 V 908.700012 H 1112.099976 V 563.900024 Z" transform="matrix(-1.836970e-16 1 -1 -1.836970e-16 2092.1968 -619.6119)" class="st7" style="fill: rgb(239, 239, 239);"/>
			<path d="M 1365.900024 542.5 A 10 10 0 0 1 1355.900024 552.5 A 10 10 0 0 1 1345.900024 542.5 A 10 10 0 0 1 1355.900024 532.5 A 10 10 0 0 1 1365.900024 542.5 Z" class="st9" style="fill: rgb(184, 188, 27);"/>
			<g>
				<g>
					<path class="st9" d="M1281.4,694.3c-24.6,0-44.7-20.1-44.7-44.7c0-24.6,20-44.7,44.7-44.7c0,0,0,0,0,0v-19.1&#10;&#9;&#9;&#9;&#9;&#9;&#9;c-35.2,0-63.8,28.6-63.8,63.8s28.6,63.8,63.8,63.8s63.8-28.6,63.8-63.8h-19.1C1326.1,674.3,1306,694.3,1281.4,694.3z" style="fill: rgb(184, 188, 27);"/>
				</g>
				<g>
					<path class="st13" d="M1442,694.3c-24.6,0-44.7-20.1-44.7-44.7c0-24.6,20-44.7,44.7-44.7c0,0,0,0,0,0c0-6.4,0-12.9,0-19.1&#10;&#9;&#9;&#9;&#9;&#9;&#9;c-35.2,0-63.8,28.6-63.8,63.8s28.6,63.8,63.8,63.8c21.6,0,40.7-10.7,52.2-27.2l-15.7-11C1470.5,686.8,1457.1,694.3,1442,694.3z&#10;&#9;&#9;&#9;&#9;&#9;&#9;" style="fill: rgb(3, 149, 214);"/>
				</g>
				<g>
					<path class="st6" d="M1277.3,644.6c0,1.4-0.5,2.7-1.6,3.7c-1,1-2.3,1.5-3.7,1.5c-1.5,0-2.7-0.5-3.7-1.5c-1-1-1.5-2.3-1.5-3.7&#10;&#9;&#9;&#9;&#9;&#9;&#9;v-12c0-1.5,0.5-2.7,1.5-3.7c1-1,2.3-1.5,3.7-1.5c1.5,0,2.7,0.5,3.7,1.6c1,1,1.5,2.3,1.5,3.7V644.6z M1272.5,672h-3.7l21.5-44.6&#10;&#9;&#9;&#9;&#9;&#9;&#9;h3.7L1272.5,672z M1270,644.5c0,0.5,0.2,1,0.6,1.4c0.4,0.4,0.8,0.6,1.4,0.6c0.5,0,1-0.2,1.4-0.6c0.4-0.4,0.6-0.8,0.6-1.4v-12&#10;&#9;&#9;&#9;&#9;&#9;&#9;c0-0.5-0.2-1-0.6-1.4c-0.4-0.4-0.8-0.6-1.4-0.6c-0.5,0-1,0.2-1.4,0.6c-0.4,0.4-0.6,0.8-0.6,1.4V644.5z M1290.7,648.9&#10;&#9;&#9;&#9;&#9;&#9;&#9;c1.5,0,2.7,0.5,3.7,1.6c1,1,1.5,2.3,1.5,3.7v12c0,1.5-0.5,2.7-1.5,3.7c-1,1-2.3,1.5-3.7,1.5c-1.5,0-2.7-0.5-3.7-1.5&#10;&#9;&#9;&#9;&#9;&#9;&#9;c-1-1-1.5-2.2-1.5-3.7v-12c0-1.5,0.5-2.7,1.5-3.7C1288,649.4,1289.3,648.9,1290.7,648.9z M1292.6,654.1c0-0.5-0.2-1-0.6-1.4&#10;&#9;&#9;&#9;&#9;&#9;&#9;c-0.4-0.4-0.8-0.6-1.4-0.6c-0.5,0-1,0.2-1.4,0.6c-0.4,0.4-0.6,0.8-0.6,1.4v12c0,0.5,0.2,1,0.6,1.4c0.4,0.4,0.8,0.6,1.4,0.6&#10;&#9;&#9;&#9;&#9;&#9;&#9;c0.5,0,1-0.2,1.4-0.6c0.4-0.4,0.6-0.8,0.6-1.4V654.1z" style="fill: rgb(79, 79, 78);"/>
				</g>
				<g>
					<path class="st6" d="M1437.6,644.6c0,1.4-0.5,2.7-1.6,3.7c-1,1-2.3,1.5-3.7,1.5c-1.5,0-2.7-0.5-3.7-1.5c-1-1-1.5-2.3-1.5-3.7&#10;&#9;&#9;&#9;&#9;&#9;&#9;v-12c0-1.5,0.5-2.7,1.5-3.7c1-1,2.3-1.5,3.7-1.5c1.5,0,2.7,0.5,3.7,1.6c1,1,1.5,2.3,1.5,3.7V644.6z M1432.8,672h-3.7l21.5-44.6&#10;&#9;&#9;&#9;&#9;&#9;&#9;h3.7L1432.8,672z M1430.3,644.5c0,0.5,0.2,1,0.6,1.4c0.4,0.4,0.8,0.6,1.4,0.6c0.5,0,1-0.2,1.4-0.6c0.4-0.4,0.6-0.8,0.6-1.4v-12&#10;&#9;&#9;&#9;&#9;&#9;&#9;c0-0.5-0.2-1-0.6-1.4c-0.4-0.4-0.8-0.6-1.4-0.6c-0.5,0-1,0.2-1.4,0.6c-0.4,0.4-0.6,0.8-0.6,1.4V644.5z M1451,648.9&#10;&#9;&#9;&#9;&#9;&#9;&#9;c1.5,0,2.7,0.5,3.7,1.6c1,1,1.5,2.3,1.5,3.7v12c0,1.5-0.5,2.7-1.5,3.7c-1,1-2.3,1.5-3.7,1.5c-1.5,0-2.7-0.5-3.7-1.5&#10;&#9;&#9;&#9;&#9;&#9;&#9;c-1-1-1.5-2.2-1.5-3.7v-12c0-1.5,0.5-2.7,1.5-3.7C1448.3,649.4,1449.6,648.9,1451,648.9z M1452.8,654.1c0-0.5-0.2-1-0.6-1.4&#10;&#9;&#9;&#9;&#9;&#9;&#9;c-0.4-0.4-0.8-0.6-1.4-0.6c-0.5,0-1,0.2-1.4,0.6c-0.4,0.4-0.6,0.8-0.6,1.4v12c0,0.5,0.2,1,0.6,1.4c0.4,0.4,0.8,0.6,1.4,0.6&#10;&#9;&#9;&#9;&#9;&#9;&#9;c0.5,0,1-0.2,1.4-0.6c0.4-0.4,0.6-0.8,0.6-1.4V654.1z" style="fill: rgb(79, 79, 78);"/>
				</g>
			</g>
			<g>
				<path class="st9" d="M1485.6,938.2c-0.9,0-1.8-0.5-2.2-1.3l-32.4-62.3l-64.7-62.1l-62.2-29.8l-32.6,125.3l-68-32.6&#10;&#9;&#9;&#9;&#9;&#9;c-1.2-0.6-1.8-2.1-1.2-3.3c0.6-1.2,2.1-1.8,3.3-1.2l62.5,30l32.6-125.3l68.4,32.8l0.3,0.3l65.6,62.9l32.8,63&#10;&#9;&#9;&#9;&#9;&#9;c0.6,1.2,0.2,2.7-1.1,3.4C1486.4,938.1,1486,938.2,1485.6,938.2z" style="fill: rgb(184, 188, 27);"/>
			</g>
			<g>
				<path class="st8" d="M1499.2,952.7h-286.7c-2.8,0-5-2.2-5-5V736.3c0-2.8,2.2-5,5-5s5,2.2,5,5v206.4h281.7c2.8,0,5,2.2,5,5&#10;&#9;&#9;&#9;&#9;&#9;S1502,952.7,1499.2,952.7z" style="fill: rgb(239, 196, 17);"/>
			</g>
			<g>
				<path class="st13" d="M1387.7,908.2c-0.6,0-1.3-0.2-1.7-0.7l-95.5-91.6l-31.1,59.7c-0.4,0.7-1,1.2-1.8,1.3&#10;&#9;&#9;&#9;&#9;&#9;c-0.8,0.1-1.6-0.1-2.1-0.7l-32.6-31.3c-1-1-1-2.5-0.1-3.5c1-1,2.5-1,3.5-0.1l30.2,29l31.1-59.7c0.4-0.7,1-1.2,1.8-1.3&#10;&#9;&#9;&#9;&#9;&#9;c0.8-0.1,1.6,0.1,2.1,0.7l95.1,91.2l31.3-90.3c0.2-0.6,0.7-1.1,1.3-1.4l65.3-31.3c1.2-0.6,2.7-0.1,3.3,1.2&#10;&#9;&#9;&#9;&#9;&#9;c0.6,1.2,0.1,2.7-1.2,3.3l-64.3,30.9l-32.3,93c-0.3,0.8-0.9,1.4-1.8,1.6C1388.1,908.1,1387.9,908.2,1387.7,908.2z" style="fill: rgb(3, 149, 214);"/>
			</g>
		</g>
		<g>
			<path class="st6" d="M833,1341.1c-1.9,0-3.5-1.6-3.5-3.5v-18.6c0-1.9,1.6-3.5,3.5-3.5h79.6v-32c0-1.9,1.6-3.5,3.5-3.5&#10;&#9;&#9;&#9;&#9;s3.5,1.6,3.5,3.5v35.5c0,1.9-1.6,3.5-3.5,3.5h-79.6v15.1C836.5,1339.5,835,1341.1,833,1341.1z" style="fill: rgb(79, 79, 78);"/>
		</g>
		<g>
			<path class="st6" d="M999.1,1341.1c-1.9,0-3.5-1.6-3.5-3.5v-15.1h-79.6c-1.9,0-3.5-1.6-3.5-3.5v-35.5c0-1.9,1.6-3.5,3.5-3.5&#10;&#9;&#9;&#9;&#9;s3.5,1.6,3.5,3.5v32h79.6c1.9,0,3.5,1.6,3.5,3.5v18.6C1002.6,1339.5,1001.1,1341.1,999.1,1341.1z" style="fill: rgb(79, 79, 78);"/>
		</g>
		<g>
			
				<path d="M 1551.900024 563.900024 H 2039.600037 V 908.700012 H 1551.900024 V 563.900024 Z" transform="matrix(-1.836970e-16 1 -1 -1.836970e-16 2532.0054 -1059.4204)" class="st7" style="fill: rgb(239, 239, 239);"/>
			<path d="M 1805.699951 542.5 A 10 10 0 0 1 1795.699951 552.5 A 10 10 0 0 1 1785.699951 542.5 A 10 10 0 0 1 1795.699951 532.5 A 10 10 0 0 1 1805.699951 542.5 Z" class="st13" style="fill: rgb(3, 149, 214);"/>
			<path d="M 1690.599976 582.5 H 1900.799973 V 597.5 H 1690.599976 V 582.5 Z" class="st12" style="fill: rgb(58, 58, 58);"/>
			<path d="M 1647.300049 622.5 H 1944.200043 V 637.5 H 1647.300049 V 622.5 Z" class="st12" style="fill: rgb(58, 58, 58);"/>
			<g>
				<path class="st8" d="M1926.2,746.9c-37-64-118.8-85.9-182.8-49l66.9,115.9l-94.6,94.6c41.8,41.8,107.9,52.2,161.6,21.3&#10;&#9;&#9;&#9;&#9;&#9;C1941.2,892.7,1963.1,810.9,1926.2,746.9z" style="fill: rgb(239, 196, 17);"/>
				<path class="st10" d="M1714.2,697.9c-64,37-85.9,118.8-49,182.8c6,10.4,13.2,19.6,21.3,27.7l94.6-94.6L1714.2,697.9z" style="fill: rgb(232, 55, 45);"/>
			</g>
		</g>
		<path d="M 861.900024 1175.099976 H 970.200027 V 1283.399979 H 861.900024 V 1175.099976 Z" class="st11" style="fill: rgb(255, 218, 16);"/>
		<path d="M 804.099976 1337.599976 H 861.899975 V 1395.399975 H 804.099976 V 1337.599976 Z" class="st5" style="fill: rgb(192, 204, 27);"/>
		
			<path d="M 970.200012 1337.599976 H 1028.000011 V 1395.399975 H 970.200012 V 1337.599976 Z" transform="matrix(-1 -4.482027e-11 4.482027e-11 -1 1998.2917 2732.9602)" class="st5" style="fill: rgb(192, 204, 27);"/>
		<g>
			<path class="st6" d="M931.7,1230.5c-4.2,3.6-9.6,5.9-15.6,5.9c-6,0-11.4-2.2-15.6-5.9c-11.9,5.8-20.1,17.9-20.1,32&#10;&#9;&#9;&#9;&#9;c0,1.3,1.1,2.4,2.4,2.4h66.5c1.3,0,2.4-1.1,2.4-2.4C951.7,1248.5,943.5,1236.3,931.7,1230.5z" style="fill: rgb(79, 79, 78);"/>
			<path d="M 935.099976 1212.599976 A 19 19 0 0 1 916.099976 1231.599976 A 19 19 0 0 1 897.099976 1212.599976 A 19 19 0 0 1 916.099976 1193.599976 A 19 19 0 0 1 935.099976 1212.599976 Z" class="st6" style="fill: rgb(79, 79, 78);"/>
		</g>
		<g>
			
				<path d="M 1112.099976 1146.5 H 1599.799988 V 1491.299988 H 1112.099976 V 1146.5 Z" transform="matrix(-1.836970e-16 1 -1 -1.836970e-16 2674.8545 -36.954)" class="st4" style="fill: rgb(255, 255, 255);"/>
			<g>
				<path d="M 1528.300048828125 1075.0999755859375 L 1207.5 1075.0999755859375 L 1528.300048828125 1288.199951171875 Z" class="st7" style="fill: rgb(239, 239, 239);"/>
				<path d="M 1486.800048828125 1219.5 L 1432.5999755859375 1219.5 L 1432.5999755859375 1224.699951171875 L 1486.800048828125 1260.699951171875 Z" class="st8" style="fill: rgb(239, 196, 17);"/>
			</g>
			<path d="M 1365.900024 1125.099976 A 10 10 0 0 1 1355.900024 1135.099976 A 10 10 0 0 1 1345.900024 1125.099976 A 10 10 0 0 1 1355.900024 1115.099976 A 10 10 0 0 1 1365.900024 1125.099976 Z" class="st8" style="fill: rgb(239, 196, 17);"/>
			<g>
				<path class="st6" d="M1358.5,1292.2c-1.2,0-2.4-0.6-3-1.8c-1-1.7-0.4-3.8,1.3-4.8l68.7-39.1l-68.7-39.1c-1.7-1-2.3-3.1-1.3-4.8&#10;&#9;&#9;&#9;&#9;&#9;c1-1.7,3.1-2.3,4.8-1.3l74.1,42.1c1.1,0.6,1.8,1.8,1.8,3s-0.7,2.4-1.8,3l-74.1,42.1C1359.7,1292,1359.1,1292.2,1358.5,1292.2z" style="fill: rgb(79, 79, 78);"/>
			</g>
			<g>
				<path class="st6" d="M1358.5,1495.7c-1.2,0-2.4-0.6-3-1.8c-1-1.7-0.4-3.8,1.3-4.8l68.7-39.1l-68.7-39.1c-1.7-1-2.3-3.1-1.3-4.8&#10;&#9;&#9;&#9;&#9;&#9;c1-1.7,3.1-2.3,4.8-1.3l74.1,42.1c1.1,0.6,1.8,1.8,1.8,3s-0.7,2.4-1.8,3l-74.1,42.1C1359.7,1495.5,1359.1,1495.7,1358.5,1495.7z&#10;&#9;&#9;&#9;&#9;&#9;" style="fill: rgb(79, 79, 78);"/>
			</g>
			<path d="M 1432.599976 1219.5 H 1486.799976 V 1273.700001 H 1432.599976 V 1219.5 Z" class="st11" style="fill: rgb(255, 218, 16);"/>
			<path d="M 1432.599976 1423 H 1486.799976 V 1477.200001 H 1432.599976 V 1423 Z" class="st11" style="fill: rgb(255, 218, 16);"/>
			
				<path d="M 1225 1190.099976 H 1358.5 V 1218.999975 H 1225 V 1190.099976 Z" transform="matrix(-1 -9.727896e-12 9.727896e-12 -1 2583.5586 2409.0083)" class="st5" style="fill: rgb(192, 204, 27);"/>
			
				<path d="M 1225 1274.300049 H 1358.5 V 1303.200048 H 1225 V 1274.300049 Z" transform="matrix(-1 -9.727896e-12 9.727896e-12 -1 2583.5586 2577.4248)" class="st10" style="fill: rgb(232, 55, 45);"/>
			
				<path d="M 1225 1389.800049 H 1358.5 V 1418.700048 H 1225 V 1389.800049 Z" transform="matrix(-1 -9.727896e-12 9.727896e-12 -1 2583.5586 2808.5532)" class="st5" style="fill: rgb(192, 204, 27);"/>
			
				<path d="M 1225 1474 H 1358.5 V 1502.9 H 1225 V 1474 Z" transform="matrix(-1 -9.755430e-12 9.755430e-12 -1 2583.5586 2976.9697)" class="st10" style="fill: rgb(232, 55, 45);"/>
		</g>
		<g>
			
				<path d="M 1551.900024 1146.5 H 2039.600037 V 1491.299988 H 1551.900024 V 1146.5 Z" transform="matrix(-1.836970e-16 1 -1 -1.836970e-16 3114.6631 -476.7626)" class="st4" style="fill: rgb(255, 255, 255);"/>
			<path d="M 1968.0999755859375 1562.800048828125 L 1968.0999755859375 1075.0999755859375 L 1623.300048828125 1075.0999755859375 L 1623.300048828125 1351.4000244140625 L 1941.5999755859375 1562.800048828125 Z" class="st7" style="fill: rgb(239, 239, 239);"/>
			<path d="M 1687.900024 1465.400024 H 1903.500031 V 1480.400024 H 1687.900024 V 1465.400024 Z" class="st6" style="fill: rgb(79, 79, 78);"/>
			<path d="M 1660.800049 1495.400024 H 1930.500061 V 1510.400024 H 1660.800049 V 1495.400024 Z" class="st6" style="fill: rgb(79, 79, 78);"/>
			<path d="M 1805.699951 1125.099976 A 10 10 0 0 1 1795.699951 1135.099976 A 10 10 0 0 1 1785.699951 1125.099976 A 10 10 0 0 1 1795.699951 1115.099976 A 10 10 0 0 1 1805.699951 1125.099976 Z" class="st10" style="fill: rgb(232, 55, 45);"/>
			<g>
				<path class="st12" d="M1687.9,1261.6c-1.1,0-2.2-0.5-2.9-1.6c-1.1-1.6-0.6-3.8,1-4.9l80.7-53.6c1.6-1.1,3.8-0.6,4.9,1&#10;&#9;&#9;&#9;&#9;&#9;c1.1,1.6,0.6,3.8-1,4.9l-80.7,53.6C1689.3,1261.4,1688.6,1261.6,1687.9,1261.6z" style="fill: rgb(58, 58, 58);"/>
			</g>
			<g>
				<path class="st12" d="M1903.5,1261.6c-0.7,0-1.3-0.2-1.9-0.6l-80.7-53.6c-1.6-1.1-2-3.2-1-4.9c1.1-1.6,3.2-2,4.9-1l80.7,53.6&#10;&#9;&#9;&#9;&#9;&#9;c1.6,1.1,2,3.2,1,4.9C1905.7,1261.1,1904.6,1261.6,1903.5,1261.6z" style="fill: rgb(58, 58, 58);"/>
			</g>
			<g>
				<path class="st12" d="M1687.9,1369.4c-1.9,0-3.5-1.6-3.5-3.5v-53.6c0-1.9,1.6-3.5,3.5-3.5s3.5,1.6,3.5,3.5v53.6&#10;&#9;&#9;&#9;&#9;&#9;C1691.4,1367.8,1689.9,1369.4,1687.9,1369.4z" style="fill: rgb(58, 58, 58);"/>
			</g>
			<g>
				<path class="st12" d="M1903.5,1369.4c-1.9,0-3.5-1.6-3.5-3.5v-53.6c0-1.9,1.6-3.5,3.5-3.5s3.5,1.6,3.5,3.5v53.6&#10;&#9;&#9;&#9;&#9;&#9;C1907,1367.8,1905.4,1369.4,1903.5,1369.4z" style="fill: rgb(58, 58, 58);"/>
			</g>
			<path d="M 1768.599976 1177.400024 H 1822.799976 V 1231.600025 H 1768.599976 V 1177.400024 Z" class="st13" style="fill: rgb(3, 149, 214);"/>
			<path d="M 1715 1420.0999755859375 L 1660.800048828125 1420.0999755859375 L 1660.800048828125 1365.9000244140625 L 1687.9000244140625 1365.9000244140625 L 1715 1365.9000244140625 Z" class="st11" style="fill: rgb(255, 218, 16);"/>
			
				<path d="M 1876.400024 1258.099976 H 1930.600025 V 1312.299976 H 1876.400024 V 1258.099976 Z" transform="matrix(-1.836970e-16 1 -1 -1.836970e-16 3188.6882 -618.3127)" class="st10" style="fill: rgb(232, 55, 45);"/>
			
				<path d="M 1660.800049 1258.099976 H 1715.00005 V 1312.299976 H 1660.800049 V 1258.099976 Z" transform="matrix(-1.836970e-16 1 -1 -1.836970e-16 2973.113 -402.7375)" class="st10" style="fill: rgb(232, 55, 45);"/>
			<path d="M 1876.4000244140625 1420.0999755859375 L 1930.5999755859375 1420.0999755859375 L 1930.5999755859375 1365.9000244140625 L 1903.5 1365.9000244140625 L 1876.4000244140625 1365.9000244140625 Z" class="st8" style="fill: rgb(239, 196, 17);"/>
			<path d="M 1903.5 1480.4000244140625 L 1903.5 1465.4000244140625 L 1795 1465.4000244140625 L 1817.5999755859375 1480.4000244140625 Z" class="st12" style="fill: rgb(58, 58, 58);"/>
			<path d="M 1930.5999755859375 1510.4000244140625 L 1930.5999755859375 1495.4000244140625 L 1840.199951171875 1495.4000244140625 L 1862.800048828125 1510.4000244140625 Z" class="st12" style="fill: rgb(58, 58, 58);"/>
			<path d="M 1715 1365.9000244140625 L 1687.9000244140625 1365.9000244140625 L 1660.800048828125 1365.9000244140625 L 1660.800048828125 1376.300048828125 L 1715 1412.300048828125 Z" class="st8" style="fill: rgb(239, 196, 17);"/>
		</g>
	</g>
	<g>
		<path d="M 531.2999877929688 1377.9000244140625 L 531.2999877929688 1293.300048828125 L 362.20001220703125 1293.300048828125 L 362.20001220703125 1377.9000244140625 L 277.6000061035156 1401.699951171875 L 446.79998779296875 1437.5 L 615.9000244140625 1401.699951171875 Z" class="st14" style="fill: rgb(245, 148, 74);"/>
		<path d="M 869.7000122070312 1503 L 615.9000244140625 1401.699951171875 L 584.2999877929688 1392.5 L 446.79998779296875 1437.5 L 309.29998779296875 1392.5 L 277.6000061035156 1401.699951171875 L 23.799999237060547 1503 L 0 1872 L 893.5 1872 Z" class="st15" style="fill: rgb(91, 74, 65);"/>
		<path d="M 309.29998779296875 1392.5 L 446.79998779296875 1822.5999755859375 L 584.2999877929688 1392.5 L 446.79998779296875 1437.5 Z" class="st16" style="fill: rgb(109, 110, 112);"/>
		<path class="st17" d="M615.9,1021.1H277.6v169.2c0,93.4,75.7,169.2,169.2,169.2h0c93.4,0,169.2-75.7,169.2-169.2V1021.1z" style="fill: rgb(254, 172, 107);"/>
		<path d="M 463.999989 1535.400024 A 17.200001 17.200001 0 0 1 446.799988 1552.600025 A 17.200001 17.200001 0 0 1 429.599987 1535.400024 A 17.200001 17.200001 0 0 1 446.799988 1518.200024 A 17.200001 17.200001 0 0 1 463.999989 1535.400024 Z" class="st18" style="fill: rgb(69, 90, 102);"/>
		<path d="M 463.999989 1604.099976 A 17.200001 17.200001 0 0 1 446.799988 1621.299976 A 17.200001 17.200001 0 0 1 429.599987 1604.099976 A 17.200001 17.200001 0 0 1 446.799988 1586.899975 A 17.200001 17.200001 0 0 1 463.999989 1604.099976 Z" class="st18" style="fill: rgb(69, 90, 102);"/>
		<path d="M 463.999989 1672.800049 A 17.200001 17.200001 0 0 1 446.799988 1690.00005 A 17.200001 17.200001 0 0 1 429.599987 1672.800049 A 17.200001 17.200001 0 0 1 446.799988 1655.600048 A 17.200001 17.200001 0 0 1 463.999989 1672.800049 Z" class="st18" style="fill: rgb(69, 90, 102);"/>
		<path class="st19" d="M615.9,936.5c0,0,0-71.5-169.2-71.5s-169.2,71.5-169.2,71.5c-40.2,90.4,0,253.8,0,253.8&#10;&#9;&#9;&#9;c0-70.9,29.1-145.3,29.1-145.3l-29.1-23.8c0,0,41,11.9,169.2,11.9s169.2-11.9,169.2-11.9l-29.1,23.8c0,0,29.1,74.4,29.1,145.3&#10;&#9;&#9;&#9;C615.9,1190.2,656.1,1026.9,615.9,936.5z" style="fill: rgb(19, 37, 71);"/>
		<path d="M 531.2999877929688 1377.9000244140625 L 446.79998779296875 1437.5 L 524.0999755859375 1514.800048828125 L 584.2999877929688 1392.5 Z" class="st20" style="fill: rgb(188, 188, 188);"/>
		<path d="M 362.20001220703125 1377.9000244140625 L 446.79998779296875 1437.5 L 369.3999938964844 1514.800048828125 L 309.29998779296875 1392.5 Z" class="st20" style="fill: rgb(188, 188, 188);"/>
	</g>
</g></g></svg>