<?xml version="1.0" encoding="utf-8"?>
<!-- Generator: Adobe Illustrator 18.0.0, SVG Export Plug-In . SVG Version: 6.00 Build 0)  -->
<!DOCTYPE svg PUBLIC "-//W3C//DTD SVG 1.1//EN" "http://www.w3.org/Graphics/SVG/1.1/DTD/svg11.dtd">
<svg version="1.1" xmlns="http://www.w3.org/2000/svg" xmlns:xlink="http://www.w3.org/1999/xlink" x="0px" y="0px" width="800px"
	 height="600px" viewBox="0 0 800 600" enable-background="new 0 0 800 600" xml:space="preserve">
<g id="Background">
	<rect fill="#FFFFFF" width="800" height="600"/>
	<path fill="#D1D3D4" d="M94.8,532L94.8,532c0,4.4,3.5,7.9,7.9,7.9h594.6c4.4,0,7.9-3.5,7.9-7.9l0,0c0-4.4-3.5-7.9-7.9-7.9H102.7
		C98.4,524.1,94.8,527.6,94.8,532z"/>
	<g>
		<g>
			<path fill="#F1F2F2" d="M358.9,131.8H268v128.6v5v123.6v5v128.6h90.9H532V394.1v-5V265.4v-5V131.8H358.9z M527,136.8v123.6h-87.2
				h-80.9V136.8H527z M444.7,265.4h80.9v123.6h-80.9V265.4z M273,136.8h80.9v123.6H273V136.8z M273,265.4h85.9h80.9v123.6h-80.9H273
				V265.4z M273,517.7V394.1h80.9v123.6H273z M527,517.7H358.9V394.1h80.9H527V517.7z"/>
			<g>
				<g>
					<g>
						<path fill="#F1F2F2" d="M432.3,236.9c0,0-0.3-7.4,4-11.4c4.3-4,5.3-7,6-16.6c0.8-9.6,12.8-15.6,17.6-7.8
							c4.8,7.8-3.8,8.5-3.5,15.5c0.3,6.9-0.8,10.4-8.5,13.3c-7.8,2.9-9.1,7-9.1,7H432.3z"/>
						<path fill="#F1F2F2" d="M450,205.5c-1.5,2.8-2,5.6-2.4,8.4c-0.7,4.3-1.4,8.4-6,11.8c-4.5,3.3-6.4,7.9-7.3,11.2h0.5
							c0.9-3.2,2.8-7.6,7.1-10.8c4.8-3.6,5.5-7.7,6.2-12.1c0.4-2.7,0.9-5.5,2.4-8.2c1.8-3.4,5.2-5.2,8.3-6.1
							c-0.1-0.1-0.3-0.3-0.4-0.4C455.2,200.2,451.8,202.1,450,205.5z"/>
					</g>
					<g>
						<path fill="#F1F2F2" d="M408.3,196.8c-9.3,3.3-10.6,10.8-4.8,15.1c5.8,4.3,0.8,9.1,3.5,15.6c2.8,6.5,12.3-0.6,17.3,9.4h7.3
							c0,0-2.8-3.1-1.8-11.7c1-8.5-3-11.6-8-13.3s-2-8.8-4-13.1C415.8,194.5,408.3,196.8,408.3,196.8z"/>
						<path fill="#F1F2F2" d="M407.9,197c-0.2,0.1-0.3,0.1-0.5,0.2c0.9,4.7,3.4,14.6,9,21.1c5.5,6.4,9.8,14.8,11.7,18.7h0.6
							c-1.8-3.8-6.2-12.5-11.9-19C411.2,211.5,408.8,201.6,407.9,197z"/>
					</g>
					<g>
						<path fill="#F1F2F2" d="M427.2,236.9c0,0-6-7.7-6.5-14.3c-0.5-6.6,7-11.4,5.3-17.7c-1.8-6.3-9.6-15.3,3-17.9
							c12.6-2.5,18.4,16.2,13.1,24.9c-5.3,8.7-6.5,24.9-6.5,24.9H427.2z"/>
						<path fill="#F1F2F2" d="M429.2,187c2,4.8,4.9,13,4,18.3c-0.6,3.8-2,6.4-3.2,8.6c-1.3,2.5-2.5,4.7-2.5,8c0,4.1,2.3,10.7,4.1,15
							h0.6c-1.7-4.3-4.1-11-4.1-15c0-3.2,1.1-5.3,2.5-7.8c1.2-2.3,2.6-4.8,3.3-8.8c0.9-5.5-1.9-13.6-3.9-18.4
							C429.5,186.9,429.3,186.9,429.2,187z"/>
					</g>
				</g>
				<path fill="#F1F2F2" d="M419.5,262.9h22.4c5.2-3.6,8.5-9.5,8.5-16.3c0-5.8-2.5-11-6.5-14.6h-26.5c-4,3.6-6.5,8.8-6.5,14.6
					C410.9,253.4,414.3,259.4,419.5,262.9z"/>
			</g>
			<g>
				<polygon fill="#F1F2F2" points="336.9,323.3 342.9,391.6 369.9,391.6 375.9,323.3 				"/>
				<g>
					<path fill="#F1F2F2" d="M354.9,332.6c0,0,2.1-36.3,17-46.9c7.8-5.6-10.2,29.1-13.2,46.9H354.9z"/>
					<path fill="#F1F2F2" d="M356.4,332.6c0,0-5.4-42.7-17-46.9c-9-3.3,8.9,20.1,13.2,46.9H356.4z"/>
					<path fill="#F1F2F2" d="M358.7,332.6c0,0,11.7-44.5,27.8-47.4c10.2-1.9-15.4,22.1-24.4,47.4H358.7z"/>
				</g>
			</g>
		</g>
	</g>
</g>
<g id="Object">
	<g>
		<g>
			<path fill="#AE4A39" d="M469.2,272.1c-0.8-13.1-29.7,1.3-44.6-0.9c-14.9-2.2-29.8-29.8-29.8-29.8l-3.9,1.6c0,0-2.4,24,22.9,45.2
				C439.1,309.4,470.4,290.2,469.2,272.1z"/>
			<path fill="#AE4A39" d="M506.6,297c-2.3,3.2-5.9,42.4-5.9,42.4h-49.7c0,0-9.3-31.9-10.3-44.2c-1.5-18.4,5.4-28.6,27.4-29.8
				c14.9-0.8,34.3-0.1,43.9-2.2c14.3-3.1,26-18.7,30-25.7s8.3-20.1,8.3-20.1l4.7,0.4c0,0,0.7,21.5-8.3,42.3
				C537.9,280.9,513.1,288.1,506.6,297z"/>
			<path fill="#FFDE17" d="M477.6,265.3c1.1-17.6,2.2-31-15.9-29.6c-12.2,0.9-10,10.2-7.3,21.2c2.7,11,6.1,5.2,9,7
				c1.6,1,1.2,10.5,12.9,13.1C476.2,276.9,477.3,269.9,477.6,265.3z"/>
			<path fill="#343B43" d="M502.6,420.6c-1.5,3.2-3.7,6.3,0.7,7.9c4.4,1.6,19.2,1.8,19.7-0.7c0.5-2.5-13.8-1.8-15.5-7.4L502.6,420.6
				z"/>
			<path fill="#27AAE1" d="M471.5,232.5c1.9,1.2,3.2,4.1,4.3,5.3c1.1,1.2,4.1,2.8,4,7.4c-0.2,4.7,1.5,12.6-1.7,11.3
				c-1.7-0.7-4.5-3.5-4.9-5.1c-0.3-1.7,3.6-4.6,1.5-6.2c-2.1-1.6-3.6,2.3-5.1,1.9c-1.5-0.4-5-4-4.4-7.7c0.2-1.2-0.4-1.3-5,1
				c-4.6,2.2-10.3,2.4-10-2.4c0.3-4.8,4.8-5.5,8-4.6C461.4,234.3,466.3,229.2,471.5,232.5z"/>
			<path fill="#343B43" d="M468.1,465.9c0,0-1.3,3.1-2.8,5.9c-1.5,2.9,3.6,3.1,8.6,3.1c5.1,0-1-9.3-1-9.3L468.1,465.9z"/>
			<path fill="#343B43" d="M451.4,339.4c0,0-6.8,16.8,0,41.8c6.8,25,14.5,64.4,16.4,84.7h5.3c0,0,8-28,7.9-56.7c-0.1-28.7-3-40,0-40
				s25,5,29,16.7c4,11.7-7.5,34.9-7.5,34.9h4.9c0,0,27.9-22.2,26.9-43.5c-1-21.3-33.3-37.8-33.3-37.8H451.4z"/>
			<path fill="#FFDE17" d="M550.5,217.4c0,0-1.4-2.9-1.4-5.2s1.9-5.6,2.3-4.3s-0.5,3.9,0.9,4.6c1.4,0.7,3.5-9.2,5.1-8.8
				s3.9,9.4-2.2,14.2L550.5,217.4z"/>
			<g>
				
					<ellipse transform="matrix(-0.2058 -0.9786 0.9786 -0.2058 312.1178 747.8548)" fill="#D4EFFC" cx="459.5" cy="247.3" rx="2.9" ry="2.4"/>
				
					<ellipse transform="matrix(-0.2058 -0.9786 0.9786 -0.2058 302.2526 742.7879)" fill="#D4EFFC" cx="452.5" cy="248.7" rx="2.9" ry="2.4"/>
			</g>
			<path fill="#FFDE17" d="M394.8,241.5c0,0,2.5-3.4,2.5-4.9s-1.9-0.1-2.5,0c-0.5,0.1-1.3-3.3-2.5-3.5s-1.4,1.3-2.9,2.5
				s-3.2,5.4,1.5,7.5L394.8,241.5z"/>
		</g>
		<path fill="#A7A9AC" d="M601.6,213l-2.1,5.8h-43l2.1-5.8h-5L437.5,532h5l2.5-6.8h43l-2.5,6.8h5l116.1-319H601.6z M598.4,221.8
			l-7.4,20.3h-43l7.4-20.3H598.4z M463,475.5l7.4-20.3h43l-7.4,20.3H463z M504.9,478.5l-7.4,20.3h-43l7.4-20.3H504.9z M471.5,452.2
			l7.4-20.3h43l-7.4,20.3H471.5z M480,428.8l7.4-20.3h43l-7.4,20.3H480z M488.5,405.5l7.4-20.3h43l-7.4,20.3H488.5z M497,382.2
			l7.4-20.3h43l-7.4,20.3H497z M505.5,358.8l7.4-20.3h43l-7.4,20.3H505.5z M514,335.5l7.4-20.3h43l-7.4,20.3H514z M522.5,312.2
			l7.4-20.3h43l-7.4,20.3H522.5z M531,288.8l7.4-20.3h43l-7.4,20.3H531z M539.5,265.5l7.4-20.3h43l-7.4,20.3H539.5z M446,522.2
			l7.4-20.3h43l-7.4,20.3H446z"/>
		<g>
			<polygon fill="#343B43" points="577.5,451.1 561.1,498.3 624.5,498.3 608.1,451.1 			"/>
			<g>
				<g>
					<g>
						<path fill="#FFDE17" d="M548.4,406.2c0,0-49.1,13.1-57.1,28c-7.9,14.8,5,97.8,5,97.8h15c0,0-3.6-74.1,7.2-77.5
							c10.8-3.5,29.8-4.5,29.8-4.5V406.2z"/>
					</g>
					<g>
						<path fill="#FFDE17" d="M635.8,406.2c0,0,49.1,13.1,57.1,28c7.9,14.8-5,97.8-5,97.8h-15c0,0,3.6-74.1-7.2-77.5
							c-10.8-3.5-29.8-4.5-29.8-4.5V406.2z"/>
					</g>
				</g>
			</g>
			<path fill="#27AAE1" d="M592.8,111.6c-0.3,0-14.5,8.5-31.6,27.8c-16.7,19.3-36.3,49.5-38.7,93.1c-2.4,43.5-2.1,108.4,1.3,162.1
				c3,53.8,9.3,71.5,9,71.5c20,0,40,0,60,0s40,0,60,0c-0.3,0,6-17.7,9-71.5c3.5-53.7,3.7-118.6,1.3-162.1
				c-2.4-43.6-22-73.8-38.7-93.1C607.3,120,593,111.6,592.8,111.6z"/>
			<circle fill="#1C75BC" cx="592.8" cy="266.4" r="43"/>
			<circle fill="#D4EFFC" cx="592.8" cy="266.4" r="32"/>
			<circle fill="#1C75BC" cx="592.8" cy="374.8" r="43"/>
			<circle fill="#D4EFFC" cx="592.8" cy="374.8" r="32"/>
			<path fill="#FFDE17" d="M624.4,139.4c-17.1-19.3-31.4-27.8-31.6-27.8c-0.3,0-14.5,8.5-31.6,27.8c-10,11.5-20.9,26.8-28.7,46.5
				c17.6,8,38.2,12.7,60.3,12.7s42.7-4.6,60.3-12.7C645.4,166.2,634.4,150.9,624.4,139.4z"/>
		</g>
		<g>
			<g>
				<g>
					<polygon fill="#FCBC81" points="194.3,532 209.6,471.4 215.7,471.4 197.5,532 					"/>
					<polygon fill="#E8A375" points="265.6,532 250.2,471.4 244.2,471.4 262.4,532 					"/>
					<polygon fill="#E8A375" points="242.8,532 239.7,471.4 233.7,471.4 239.6,532 					"/>
					<polygon fill="#FCBC81" points="217.1,532 220.1,471.4 226.2,471.4 220.3,532 					"/>
				</g>
				<path fill="#1867A5" d="M208.1,409.1c-29.8,1.5-23.9,24.2-20.3,43.6c3.6,19.4,15,23.8,36.8,23.8s37.9,1.6,37.5-7.3
					c-0.4-8.9-6.5-20.2-19-19.8c-12.5,0.4-3.2-17.9-4.8-28.5C236.8,410.4,224.7,408.3,208.1,409.1z"/>
			</g>
			<g>
				<circle fill="#1C75BC" cx="261.5" cy="316.3" r="20.3"/>
				<polygon fill="#1C75BC" points="250.4,324.6 244.7,338.3 256.5,331.5 				"/>
			</g>
			<g>
				<g>
					<path fill="#343B43" d="M249.4,441.9c0,0,45.1,9,60.2,17.5c15.1,8.6,33.2,36.9,33.2,36.9l-3,3.2c0,0-27.4-23.4-38.4-26.3
						c-11-2.9-51.5-0.8-68.3-8.2c-16.9-7.3-16-23.2-16-23.2H249.4z"/>
					<path fill="#F1F2F2" d="M249.4,441.9h-42.3c0,0-13.7-42.3-7.7-54.9c6-12.5,32.2-8.2,37.2-7.6c12.8,1.5,25.8,2.8,29,1.2
						c3.1-1.7,0-27.3,0-27.3l4.5-1.4c0,0,14.3,32.5,7.7,39.9s-26.3,7.2-27.7,12.8S249.4,441.9,249.4,441.9z"/>
					<path fill="#1C75BC" d="M214,381.2c-4.2-15.4-7.7-27,8.6-29.1c10.9-1.4,10.7,7.1,10.4,17.3s-4.5,5.7-6.6,7.8
						c-0.8,0.8-1.1,2.8-1.1,5c-0.1,4.1-4.8,6.3-7.9,3.6C215.8,384.5,214.5,382.9,214,381.2z"/>
					<path fill="#343B43" d="M207.1,441.9c0,0-2.6,14.3,7.5,23.6c10.2,9.4,51.3,10.6,53.8,12.2c2.4,1.6-5.3,42-5.3,42l4.2,1.1
						c0,0,18.2-29.7,18.6-43.9c0.4-14.3-46-35-46-35H207.1z"/>
					<path fill="#343B43" d="M263.1,519.8c-2.1,2.4-4.9,4.4-1.5,7s16,6.7,17.1,4.7s-11.4-5.3-11.4-10.6L263.1,519.8z"/>
					<path fill="#343B43" d="M339.8,499.6c1.1,3,1.6,6.4,5.5,4.6c3.9-1.8,13.4-11,12.2-12.9c-1.3-1.9-10,7.6-14.7,5.1L339.8,499.6z"
						/>
					<path fill="#FFDE17" d="M229.6,349c-5-2.7-12.2-2.8-15.5,1c-1.8,2.1-1.8,4-2.5,5.2c-0.7,1.2-3.2,2.8-3.2,7
						c0,4.3,1.1,13,3.6,11.2c1.4-1,3.3-3.9,3.3-5.4c0-1.5-4.1-3.4-2.5-5.2c1.6-1.8,3.6,1.3,4.8,0.7s3.9-4.6,2.4-7.6
						c-1.5-3,0.2-0.5,6.5,1.4c3.6,1.1,10.4-1.4,10.8-4.9S234.9,352,229.6,349z"/>
					<path fill="#FFDE17" d="M215.8,363c1.4,1.3,2.3,2.4,2.8,7.2s4.5,9.3,9.9,7.9s5.4-5.5,5.3-9s-8.4-2.7-10.2-1.1
						c-1.9,1.6-3.4-4.4-6.4-6.1S215.8,363,215.8,363z"/>
					<path fill="#E6E7E8" d="M213.4,378.8c0,0-1.1,0.4-1.1,2.4c0,2,3.7,9.3,9.6,7.5c5.8-1.8,5.3-5.9,5.1-7.5s-1.4-1.9-1.4-1.9
						s0,5.6-4.4,5.2C216.6,384.3,213.4,378.8,213.4,378.8z"/>
					<path fill="#F1F2F2" d="M200.4,387.1c4.6-9.1,27.8,2.4,42.4,4.8s50.3-3.6,50.3-3.6l1.7,4.2c0,0-37.3,19.8-53.7,20.3
						S192.4,402.9,200.4,387.1z"/>
					<path fill="none" stroke="#D1D3D4" stroke-miterlimit="10" d="M249.4,411.4c-3.1,0.8-6,1.3-8.4,1.3c-9.5,0.3-24.3-3.1-33.5-9"
						/>
					<path fill="#1C75BC" d="M293.1,388.3c0,0,2-2.6,4.8-3.7s6.8-2.6,7.5-2.3s-3.9,2-3.9,2.9c0,0.9,1.7,7.4-6.8,7.2L293.1,388.3z"/>
					<path fill="#1C75BC" d="M265.6,353.3c0,0-4.1-1.3-4.1-2.4s2.2-1,2-1.5s-1.4-4.5,1.1-4.1s5.9,0.7,6.4,1.8c0.5,1.2-1,4.9-1,4.9
						L265.6,353.3z"/>
				</g>
				<rect x="260" y="427.1" fill="#FCBC81" width="165.6" height="5.3"/>
				<rect x="260" y="427.1" fill="#E8A375" width="55.1" height="5.3"/>
				<polygon fill="#E8A375" points="262.3,532 267,432.4 273.1,432.4 265.5,532 				"/>
				<polygon fill="#E8A375" points="313.4,532 308.7,432.4 302.6,432.4 310.1,532 				"/>
				<polygon fill="#E8A375" points="368.3,532 373,432.4 379.1,432.4 371.6,532 				"/>
				<polygon fill="#E8A375" points="419.4,532 414.7,432.4 408.7,432.4 416.2,532 				"/>
				<g>
					<path fill="#343B43" d="M327.3,349.5l-4.5,51.9c-0.1,1.2,0.9,2.3,2.1,2.3h72.5c0.9,0,1.7-0.7,1.7-1.6l4.6-52.6
						c0.1-1-0.7-1.9-1.7-1.9h-72.6C328.4,347.5,327.4,348.4,327.3,349.5z"/>
					<polygon fill="#343B43" points="362.8,361 357.4,422.8 371.8,422.8 377.2,361 					"/>
					<path fill="#51545B" d="M327.3,348.6l-4.7,53.8c-0.1,0.7,0.5,1.3,1.1,1.3h0c0.6,0,1.1-0.5,1.1-1.1l4.7-53.8
						c0.1-0.7-0.5-1.3-1.1-1.3h0C327.9,347.5,327.4,348,327.3,348.6z"/>
					<rect x="341.2" y="422.8" fill="#343B43" width="42.5" height="4.3"/>
					<rect x="341.2" y="422.8" fill="#51545B" width="14.7" height="4.3"/>
					<path fill="#51545B" d="M362.7,362l-5.3,60.7h2.3l5.3-60.5c0.1-0.7-0.5-1.3-1.1-1.3h0C363.3,361,362.8,361.4,362.7,362z"/>
				</g>
				<path fill="#51545B" d="M319.7,427.1h-18.8c0,0,0.4-7.2,6.6-7.2C313.7,419.9,318.6,423.5,319.7,427.1z"/>
			</g>
			<path fill="#1C75BC" d="M233.6,467.7c-4.4-9-11.7-16.1-26.2-11.7c-14.5,4.4-14.5-6-17-22.9c-1.4-9.9,1-16.5,3.2-20.3
				c-12.8,7.4-8.5,24.7-5.7,40c3.6,19.4,15,23.8,36.8,23.8C232.4,476.5,238,476.6,233.6,467.7z"/>
		</g>
		<g>
			<path fill="#FBB040" d="M158.8,326c11.5,0,15.3,25.6,17.5,25.6s6.9-19.9,6.9-19.9l3.6,0.3c0,0,4.3,26.8-7,32.6
				s-28.3-15.3-28.3-26.5C151.6,329.1,155.8,326,158.8,326z"/>
			<path fill="#252F7E" d="M171.3,396.4c0,0,6.7,61.9-4.4,126.3l-4.8,0.2c0,0-10.9-51.3-20.4-77.8s-4.9-40.5-0.6-48.6L171.3,396.4z"
				/>
			<path fill="#27AAE1" d="M142.1,296.7c0,0-2.8,7.5-14.6,8c-11.8,0.5-11.1,9.7-14.6,11.4c-3.5,1.7-9.4,4.2-8.2,12.1
				c1.2,7.9,14.8,19.4,20,11.7c5.2-7.7,10.5-2.7,15.4-6c4.9-3.3,4.4-7,8.7-11.6s15.5-7.4,15.5-7.4S163.1,297.9,142.1,296.7z"/>
			<path fill="#343B43" d="M162,522.9c-1.5,3.2-3.7,6.3,0.7,7.9c4.4,1.6,19.2,1.8,19.7-0.7c0.5-2.5-13.8-1.8-15.5-7.4L162,522.9z"/>
			<path fill="#343B43" d="M127.4,522.9c0,0-1.3,3.1-2.8,5.9s3.6,3.1,8.6,3.1c5.1,0-1-9.3-1-9.3L127.4,522.9z"/>
			<path fill="#FFDE17" d="M148.9,322.3c-16.9,0-23.9,8.6-20.2,27.4c3.7,18.9,5.8,46.7,5.8,46.7h36.8c0,0-1.1-20.4,0.9-28.1
				c2-7.7,6.7-14,6.7-17.5c0-4.5-3.1-6.4-8.7-14.4C164.5,328.4,164.1,322.3,148.9,322.3z"/>
			<path fill="#FFDE17" d="M135.2,328.9c13.3-7.1,25,24.7,37,31.7s34.3,20.9,34.3,20.9v3.2c0,0-18-1.7-46.3-8.4
				C131.9,369.6,121.6,336.2,135.2,328.9z"/>
			<path fill="#EE2A7B" d="M145.5,324.3c-1-3.8,1-7.3,0.3-10.6c-2.6-11.6-1.8-19.8,12.3-21.6c12.1-1.6,11.9,7.9,11.5,19.2
				s-9.5,6.3-11.8,8.7c-2.5,2.5-3.6,15.4-3.6,15.4S147.2,330.6,145.5,324.3z"/>
			<path fill="#27AAE1" d="M141.2,305.6c0.5,5.9,3.5,10.5,5.1,10.5c1.1,0,4.1-3.8,3.7-6.3c-0.4-2.5-4.8-4.3-1.9-6.3
				c2.9-2,2.4,1.8,3.8,2.2c1.4,0.4,5-5.9,4-12.3c0,0,11.7-1.2,13.7,9.6c0,0,3.6-1.9,0.3-10.1c-1.9-4.7-10.6-10.2-17.9-4.1
				S140.2,293.8,141.2,305.6z"/>
			<path fill="#2B3990" d="M134.5,396.4c0,0-5.1,10.5-3.1,29.1s-4,97.3-4,97.3l4.8-0.2c0,0,16.9-26.1,25-63.1s7.2-63.1,7.2-63.1
				H134.5z"/>
			<path fill="#EE2A7B" d="M183.3,331.7c0,0-2.7-2.2-2.1-3.4c0.6-1.3,1.7-0.6,2.1-1.4c0.3-0.8,0.1-2.6,1.2-2.8c1.1-0.2,4,2,4.3,3.8
				s-1.9,4.1-1.9,4.1L183.3,331.7z"/>
			<path fill="#EE2A7B" d="M206.2,381.2c0,0,3.4-1.4,5.6-1.2c2.2,0.2-1.4,1.8-1.4,2.2c0,0.5,6.5,0.6,6.5,1.6c0,1-4.8,5.4-11.4,0.5
				L206.2,381.2z"/>
		</g>
	</g>
	<g>
		<g>
			<rect x="398.5" fill="#D1D3D4" width="3" height="110.2"/>
		</g>
		<g>
			<path fill="#343B43" d="M400,87.2c-25.4,0-45.9,20.6-45.9,45.9h91.9C445.9,107.8,425.4,87.2,400,87.2z"/>
			<rect x="391.6" y="79.7" fill="#343B43" width="16.8" height="11.6"/>
		</g>
	</g>
</g>
<g id="Text">
</g>
</svg>
